<svg width="49" height="48" viewBox="0 0 49 48" fill="none" xmlns="http://www.w3.org/2000/svg">
  <g clip-path="url(#clip0_20_761)">
    <path d="M48.025 33.4838C47.6124 34.284 46.9372 34.5215 46.0745 34.484C44.8367 34.4465 43.6114 34.4965 42.3735 34.459C41.9984 34.4465 41.8984 34.5966 41.8484 34.9091C41.3483 38.0225 39.8354 40.5481 37.3597 42.4861C35.2717 44.1365 32.8836 44.9493 30.2329 45.0118C29.6827 45.0243 29.1326 45.0368 28.5949 44.9993C28.2699 44.9743 28.1823 45.1493 28.0698 45.3869C27.3071 46.9873 26.0443 47.9125 24.2688 48.0001C22.3933 48.0876 20.9805 47.2624 20.1052 45.6119C18.9424 43.4114 19.8802 40.6982 22.1183 39.6104C24.3563 38.5351 27.032 39.4978 28.0573 41.7859C28.2073 42.111 28.3574 42.211 28.7075 42.211C30.3204 42.2235 31.9208 42.1485 33.4462 41.5484C36.9346 40.173 39.1852 36.8096 39.1977 32.9086C39.2102 28.0073 39.2102 23.0936 39.1977 18.1923C39.1727 11.6906 35.3967 6.15165 29.4452 3.85105C20.7679 0.487679 11.0404 5.80156 9.18989 14.8914C8.95233 16.0292 8.86481 17.1795 8.86481 18.3298C8.86481 23.1061 8.86481 27.8948 8.86481 32.6711C8.86481 33.9839 8.36468 34.4715 7.03933 34.4715C5.26387 34.4715 3.47591 34.4465 1.70044 34.484C0.675176 34.509 0 33.8339 0 32.7836C0.0375098 27.9073 0.0125033 23.031 0.0125033 18.1548C0.0125033 17.117 0.550143 16.5794 1.60042 16.5669C2.97578 16.5544 4.35113 16.5544 5.72649 16.5669C5.98906 16.5669 6.08909 16.5294 6.1266 16.2168C6.65173 11.303 8.8148 7.25194 12.6033 4.08862C15.3165 1.82553 18.4548 0.525189 21.9682 0.0875749C22.0682 0.0750716 22.1933 0.137588 22.2433 -0.0124512C23.3686 -0.0124512 24.4939 -0.0124512 25.6192 -0.0124512C25.6317 0.0625684 25.6942 0.0750716 25.7567 0.0750716C26.832 0.125085 27.8823 0.362646 28.92 0.650221C36.0094 2.63824 41.2733 8.93988 41.9234 16.2293C41.9484 16.5544 42.0985 16.5544 42.336 16.5544C43.6489 16.5544 44.9617 16.5794 46.2746 16.5419C47.1248 16.5169 47.7249 16.8169 48.0375 17.6171C48.025 22.9185 48.025 28.1949 48.025 33.4838ZM2.82574 25.4567C2.82574 27.3822 2.82574 29.2952 2.82574 31.2207C2.82574 31.4958 2.86325 31.6333 3.18833 31.6208C4.01355 31.5958 4.83876 31.5958 5.67648 31.6208C5.97656 31.6333 6.02657 31.5333 6.02657 31.2582C6.01407 27.4322 6.01407 23.6062 6.02657 19.7677C6.02657 19.4426 5.91404 19.3926 5.62647 19.3926C4.81375 19.4051 4.00104 19.4176 3.18833 19.3926C2.86325 19.3801 2.81323 19.4926 2.81323 19.7802C2.83824 21.6807 2.82574 23.5687 2.82574 25.4567ZM45.2118 25.5192C45.2118 23.5937 45.2118 21.6807 45.2118 19.7552C45.2118 19.5176 45.1868 19.3926 44.8992 19.4051C44.0365 19.4301 43.1863 19.4176 42.3235 19.4051C42.0735 19.4051 42.0109 19.4676 42.0109 19.7177C42.0234 23.5812 42.0234 27.4322 42.0109 31.2957C42.0109 31.5708 42.0985 31.6333 42.3485 31.6333C43.1737 31.6208 44.0115 31.6083 44.8367 31.6333C45.1493 31.6458 45.2243 31.5458 45.2243 31.2457C45.2118 29.3327 45.2118 27.4197 45.2118 25.5192ZM22.4308 43.5614C22.4183 44.4366 23.1435 45.1868 24.0063 45.1993C24.8565 45.2118 25.5942 44.4991 25.6192 43.6489C25.6442 42.7612 24.944 42.0235 24.0563 42.011C23.1685 41.986 22.4433 42.6862 22.4308 43.5614Z" fill="#00AF7E"/>
    <path d="M15.5166 30.1079C17.267 30.1079 19.005 30.1079 20.7554 30.1079C20.993 30.1079 21.218 30.1204 21.4431 30.1954C22.0808 30.408 22.4809 31.0206 22.4184 31.6833C22.3558 32.321 21.8682 32.8336 21.218 32.9336C21.0805 32.9586 20.943 32.9586 20.7929 32.9586C18.4173 32.9586 16.0417 32.9586 13.6661 32.9586C12.5533 32.9586 11.9781 32.296 12.0657 31.1957C12.1782 29.8578 12.7283 28.7575 13.6786 27.8198C15.5541 25.9568 17.417 24.0813 19.2925 22.2308C19.5426 21.9808 19.6176 21.7557 19.5551 21.4056C19.3175 20.1428 18.3048 19.3301 17.0169 19.4176C15.8916 19.4926 14.9789 20.4429 14.9039 21.6432C14.8414 22.5934 14.2162 23.2186 13.366 23.1561C12.5158 23.0936 11.9781 22.3559 12.0782 21.3806C12.3157 18.9175 13.8911 17.1545 16.2918 16.6544C19.0425 16.0792 21.9057 18.0673 22.3433 20.843C22.4309 21.4056 22.4184 21.9683 22.4184 22.5184C22.4184 23.006 22.1558 23.3686 21.8182 23.6937C19.8427 25.6692 17.8547 27.6448 15.8791 29.6203C15.7416 29.7578 15.6041 29.8703 15.4665 29.9954C15.4915 30.0329 15.504 30.0704 15.5166 30.1079Z" fill="#00AF7E"/>
    <path d="M35.2467 21.6683C35.2467 22.8561 35.2592 24.0439 35.2467 25.2317C35.2467 25.4942 35.2967 25.5818 35.5843 25.6318C36.2719 25.7443 36.7596 26.357 36.7596 27.0196C36.7596 27.6948 36.2594 28.3075 35.5468 28.4075C35.2842 28.445 35.2592 28.545 35.2592 28.7576C35.2717 29.6578 35.2717 30.5706 35.2592 31.4708C35.2467 32.221 34.7966 32.7711 34.1464 32.9087C33.4962 33.0462 32.8711 32.7586 32.571 32.171C32.4459 31.9209 32.3959 31.6458 32.3959 31.3583C32.3959 30.5206 32.3834 29.6703 32.4084 28.8326C32.4209 28.5075 32.3334 28.42 31.9958 28.42C30.1954 28.4325 28.3949 28.3825 26.6069 28.445C25.4941 28.4825 24.7064 27.8199 24.9065 26.4695C25.0815 25.2692 25.5692 24.2439 26.4319 23.3812C28.5324 21.2806 30.633 19.1926 32.7335 17.0796C33.1961 16.6169 33.7338 16.4419 34.3464 16.6669C34.9966 16.9045 35.2592 17.4421 35.2717 18.1048C35.2467 19.2926 35.2467 20.4804 35.2467 21.6683ZM28.2448 25.6068C29.5827 25.6068 30.858 25.5943 32.1334 25.6068C32.3959 25.6068 32.3834 25.4692 32.3834 25.2817C32.3834 24.1189 32.3834 22.9436 32.3834 21.7808C32.3834 21.6933 32.4459 21.5557 32.3334 21.5057C30.9831 22.8686 29.6452 24.2064 28.2448 25.6068Z" fill="#00AF7E"/>
  </g>
  <defs>
    <clipPath id="clip0_20_761">
      <rect width="48.025" height="48" fill="white"/>
    </clipPath>
  </defs>
</svg>