<svg width="20" height="20" viewBox="0 0 20 20" fill="currentColor" xmlns="http://www.w3.org/2000/svg">
  <path d="M10.0001 0.0415039C4.47724 0.0415039 0 4.51874 0 10.0416C0 14.9949 3.60522 19.0971 8.3322 19.8914V12.1278H5.91994V9.334H8.3322V7.274C8.3322 4.88377 9.7921 3.58123 11.9247 3.58123C12.9461 3.58123 13.8238 3.65733 14.0786 3.69086V6.18929L12.5995 6.19001C11.44 6.19001 11.2165 6.74089 11.2165 7.54957V9.3326H13.9832L13.6223 12.1264H11.2165V19.9582C16.1642 19.3561 20 15.1494 20 10.0387C20 4.51874 15.5228 0.0415039 10.0001 0.0415039Z" fill="currentColor"/>
</svg>