<svg width="49" height="48" viewBox="0 0 49 48" fill="none" xmlns="http://www.w3.org/2000/svg">
  <g clip-path="url(#clip0_20_743)">
    <path d="M0 14.1954C0.41938 13.382 1.10564 13.1533 1.98253 13.166C5.24861 13.1914 8.5274 13.1787 11.7935 13.1787C13.077 13.1787 13.6108 13.7124 13.6108 14.996C13.6108 21.0834 13.6108 27.158 13.6108 33.2454C13.6108 34.44 13.077 34.9737 11.8697 34.9865C10.0651 34.9865 8.24781 34.9865 6.32883 34.9865C9.16283 39.4598 12.9881 42.5353 17.9825 44.1366C24.3495 46.1826 31.2883 44.9753 36.2192 41.4932C36.2192 41.3788 36.1175 41.3915 36.054 41.3788C35.3042 41.2009 34.8213 40.5655 34.8848 39.8665C34.9484 39.1548 35.533 38.5575 36.2701 38.5321C37.6553 38.5067 39.0405 38.494 40.413 38.5321C41.2137 38.5575 41.7855 39.1675 41.7982 40.0063C41.8237 41.328 41.8237 42.637 41.7982 43.9587C41.7855 44.8101 41.1374 45.4328 40.3622 45.4455C39.5743 45.4583 38.9388 44.7974 38.9007 43.9332C38.888 43.7045 38.9007 43.463 38.9007 43.158C37.6934 44.0476 36.4988 44.8101 35.228 45.4455C32.3177 46.907 29.255 47.7585 26.0016 47.9491C19.7871 48.3304 14.2335 46.5766 9.36616 42.7132C6.82446 40.6926 4.7911 38.2398 3.26608 35.3677C3.11358 35.0754 2.94837 34.9356 2.61795 34.9737C2.35107 34.9992 2.07149 34.961 1.80461 34.9865C0.940429 35.0627 0.343129 34.7323 0 33.9316C0 27.3486 0 20.7784 0 14.1954ZM10.7387 24.1461C10.7387 21.6044 10.726 19.0627 10.7514 16.521C10.7514 16.1525 10.6497 16.0762 10.3066 16.0762C7.96823 16.0889 5.64257 16.0889 3.30421 16.0762C2.94837 16.0762 2.85941 16.1652 2.85941 16.521C2.87212 21.5917 2.87212 26.6497 2.85941 31.7204C2.85941 32.0508 2.93566 32.1397 3.27879 32.1397C5.59174 32.127 7.91739 32.127 10.2303 32.1397C10.637 32.1397 10.7641 32.0635 10.7514 31.6314C10.726 29.1278 10.7387 26.637 10.7387 24.1461Z" fill="#00AF7E"/>
    <path d="M43.0183 14.0047C39.8284 8.46383 35.2661 4.84191 29.0771 3.44397C23.1549 2.10958 17.6267 3.1898 12.556 6.50672C12.5941 6.67193 12.6704 6.64651 12.7212 6.65922C13.471 6.84985 13.9539 7.48528 13.8904 8.17153C13.8269 8.90863 13.2296 9.49322 12.4671 9.50593C11.1199 9.53134 9.76014 9.53134 8.41304 9.50593C7.58699 9.49322 6.98969 8.8705 6.97698 8.03174C6.95156 6.71006 6.95156 5.38837 6.97698 4.0794C6.98969 3.24064 7.63782 2.60521 8.41304 2.5925C9.18826 2.57979 9.82368 3.21522 9.87452 4.05398C9.88722 4.30815 9.87452 4.54961 9.87452 4.85462C10.5226 4.42253 11.1199 4.00315 11.73 3.62189C16.2923 0.813313 21.2613 -0.432119 26.5862 0.139763C35.4186 1.0929 41.8618 5.62984 45.9412 13.5218C46.1446 13.9031 46.3479 14.0683 46.7673 14.0174C46.9325 13.992 47.1104 14.0174 47.2883 14.0174C48.2161 14.0302 48.7879 14.6147 48.7879 15.5425C48.7879 21.2613 48.7879 26.9801 48.7879 32.6989C48.7879 34.4908 48.4194 34.8594 46.6148 34.8594C43.4122 34.8594 40.197 34.8594 36.9945 34.8594C35.7109 34.8594 35.1771 34.3256 35.1771 33.0421C35.1771 27.2724 35.1771 21.5155 35.1771 15.7458C35.1771 14.5512 35.7109 14.0174 36.9182 14.0174C38.7609 14.0174 40.6037 14.0174 42.4464 14.0174C42.6116 14.0047 42.7641 14.0047 43.0183 14.0047ZM45.9412 24.4003C45.9412 22.0238 45.9412 19.6346 45.9539 17.2581C45.9539 16.9531 45.8777 16.8641 45.5727 16.8641C43.2089 16.8769 40.8451 16.8769 38.4686 16.8641C38.1763 16.8641 38.062 16.915 38.062 17.2454C38.0747 22.0111 38.0747 26.7768 38.062 31.5425C38.062 31.8729 38.1509 31.9618 38.4813 31.9618C40.8324 31.9491 43.1835 31.9491 45.5346 31.9618C45.865 31.9618 45.9539 31.8856 45.9539 31.5425C45.9285 29.166 45.9412 26.7768 45.9412 24.4003Z" fill="#00AF7E"/>
    <path d="M29.5854 27.3232C29.3439 29.598 28.2383 31.2374 26.0524 32.0508C25.7982 32.1524 25.722 32.2668 25.7347 32.521C25.7474 32.8133 25.7728 33.1183 25.6585 33.4106C25.4043 34.0587 24.7562 34.4781 24.1334 34.3637C23.4091 34.2366 22.8626 33.6775 22.888 32.9658C22.9134 32.4447 22.799 32.2414 22.2272 32.1652C21.3376 32.0508 20.5496 31.606 19.8253 31.0849C19.1771 30.6274 19.0246 29.7887 19.4186 29.1405C19.8507 28.467 20.7276 28.2382 21.4138 28.7084C22.5322 29.471 23.7395 29.6235 24.9976 29.3312C26.1287 29.0643 26.8785 27.8316 26.6624 26.6878C26.5353 25.9888 26.0651 25.5567 25.417 25.3153C24.1589 24.8451 22.9007 24.3876 21.7315 23.7013C20.6767 23.0786 19.9396 22.2271 19.6855 20.9944C19.2661 19.0119 20.3463 16.8006 22.2272 16.0127C22.7101 15.8093 22.9007 15.5933 22.888 15.0468C22.8753 13.9666 24.0826 13.3057 25.0103 13.8522C25.5187 14.1445 25.7855 14.602 25.7347 15.1993C25.6966 15.5679 25.8237 15.7331 26.1922 15.8093C26.7514 15.9364 27.2597 16.2033 27.7299 16.5337C28.4797 17.042 28.6704 17.9062 28.2129 18.6052C27.7681 19.2787 26.8912 19.4312 26.1541 18.9483C25.3662 18.4273 24.5274 18.2875 23.6251 18.5798C22.8753 18.8212 22.367 19.6473 22.5195 20.4098C22.5703 20.7021 22.7228 20.9181 22.977 21.0961C23.9428 21.7442 25.0357 22.1382 26.116 22.5194C27.857 23.1421 29.077 24.2605 29.4964 26.1159C29.5473 26.3574 29.5727 26.6115 29.5854 26.8657C29.5981 27.0055 29.5854 27.158 29.5854 27.3232Z" fill="#00AF7E"/>
  </g>
  <defs>
    <clipPath id="clip0_20_743">
      <rect width="48.8006" height="48" fill="white"/>
    </clipPath>
  </defs>
</svg>