<svg width="64" height="48" viewBox="0 0 64 48" fill="none" xmlns="http://www.w3.org/2000/svg">
  <g clip-path="url(#clip0_20_766)">
    <path d="M63.0154 29.8011C62.72 30.5888 62.7036 31.4093 62.5231 32.2298C60.8164 39.959 54.318 46.2442 46.5559 47.6554C35.5118 49.6575 25.2062 42.8965 22.8267 31.8852C20.759 22.2688 25.8954 12.8001 34.7897 8.99288C35.5939 8.64826 36.4144 8.33647 37.2677 8.13954C37.6287 8.05749 37.6944 7.94262 37.5467 7.56519C36.398 4.59493 37.9241 1.29647 40.9108 0.295442C43.9467 -0.721994 47.1467 0.951852 48.0328 4.05339C48.3774 5.23493 48.3446 6.41647 47.8523 7.53237C47.6718 7.94262 47.8031 8.02467 48.1641 8.13954C54.7938 10.1416 59.3395 14.3919 61.8174 20.8411C62.3918 22.3344 62.7364 23.8934 62.8841 25.4852C62.9005 25.5836 62.8677 25.6985 62.999 25.7313C63.0154 27.0934 63.0154 28.439 63.0154 29.8011ZM40.6646 11.2247C40.1887 11.3067 39.7785 11.3724 39.3518 11.4544C32.8533 12.6688 27.3067 18.396 26.3385 24.8944C26.1908 25.8626 26.1908 25.8626 27.1918 25.8626C27.4544 25.8626 27.7333 25.8626 27.9959 25.8626C28.9969 25.8954 29.7682 26.6831 29.7846 27.6842C29.801 28.718 29.0297 29.5221 27.9959 29.5549C27.52 29.5713 27.0441 29.5713 26.5846 29.5549C26.2892 29.5385 26.2072 29.6042 26.24 29.9324C27.1754 37.038 32.8041 42.8965 39.8277 44.078C40.8615 44.2585 40.8615 44.2585 40.8615 43.2247C40.8615 42.9621 40.8615 42.6831 40.8615 42.4206C40.8944 41.4195 41.6821 40.6483 42.6831 40.6319C43.7169 40.6154 44.521 41.3867 44.5539 42.4206C44.5703 42.8965 44.5703 43.3724 44.5539 43.8319C44.5374 44.1272 44.6031 44.2421 44.9149 44.1765C45.5877 44.0124 46.2933 43.9467 46.9497 43.7498C53.8256 41.6657 57.879 37.0544 59.159 29.9816C59.2246 29.5713 59.0933 29.5549 58.7651 29.5549C58.1908 29.5713 57.6 29.6206 57.0421 29.5057C56.1067 29.3416 55.4995 28.3898 55.6308 27.4216C55.7456 26.519 56.5333 25.8626 57.5344 25.8462C58.0595 25.8462 58.7815 26.0267 59.0769 25.7642C59.3887 25.4852 59.0441 24.7795 58.9456 24.2708C57.6821 17.7724 51.9877 12.2913 45.5221 11.3231C44.5539 11.1754 44.5539 11.1754 44.5539 12.1765C44.5539 12.439 44.5539 12.718 44.5539 12.9806C44.521 13.998 43.7005 14.7693 42.6831 14.7693C41.6821 14.7529 40.8944 13.9816 40.878 12.9806C40.8615 12.4883 40.878 11.996 40.878 11.5036C40.8615 11.356 40.8944 11.159 40.6646 11.2247ZM44.5539 5.54672C44.5539 4.57852 43.6841 3.70878 42.7159 3.69236C41.7477 3.69236 40.878 4.56211 40.8615 5.53031C40.8615 6.49852 41.7313 7.36826 42.6995 7.38467C43.6677 7.40108 44.5539 6.53134 44.5539 5.54672Z" fill="#00AF7E"/>
    <path d="M9.35385 40.6318C11.8154 40.6318 14.2769 40.6318 16.7385 40.6318C17.92 40.6318 18.7241 41.4031 18.7077 42.5026C18.6913 43.5693 17.8872 44.3241 16.7385 44.3241C11.8154 44.3241 6.89231 44.3241 1.96923 44.3241C0.787695 44.3241 -0.0164078 43.5529 2.45808e-06 42.4534C0.0164127 41.3867 0.820515 40.6482 1.96923 40.6318C4.43077 40.6318 6.89231 40.6318 9.35385 40.6318Z" fill="#00AF7E"/>
    <path d="M11.1754 33.2472C9.33744 33.2472 7.48308 33.2472 5.64514 33.2472C4.51283 33.2472 3.70872 32.476 3.70872 31.4093C3.70872 30.3426 4.51283 29.5549 5.64514 29.5549C9.35385 29.5549 13.0626 29.5549 16.7877 29.5549C17.9364 29.5549 18.7241 30.3262 18.7405 31.3929C18.7405 32.476 17.9364 33.2472 16.8041 33.2472C14.9005 33.2472 13.0462 33.2472 11.1754 33.2472Z" fill="#00AF7E"/>
    <path d="M13.0462 22.1703C11.799 22.1703 10.5518 22.1703 9.28821 22.1703C8.18872 22.1703 7.40103 21.3991 7.38462 20.3488C7.36821 19.2657 8.17231 18.478 9.30462 18.478C11.799 18.478 14.3097 18.478 16.8041 18.478C17.9036 18.478 18.6913 19.2493 18.7077 20.2996C18.7241 21.3826 17.92 22.1703 16.7877 22.1703C15.5405 22.1703 14.2933 22.1703 13.0462 22.1703Z" fill="#00AF7E"/>
    <path d="M14.8677 11.0934C14.2113 11.0934 13.5549 11.1098 12.8985 11.0934C11.8646 11.077 11.0769 10.2893 11.0769 9.25546C11.0769 8.22161 11.8482 7.41751 12.8821 7.4011C14.2113 7.38469 15.5405 7.38469 16.8862 7.4011C17.92 7.41751 18.7077 8.2052 18.7077 9.23905C18.7077 10.2729 17.9364 11.077 16.9026 11.0934C16.2297 11.0934 15.5405 11.0934 14.8677 11.0934Z" fill="#00AF7E"/>
    <path d="M40.8615 24.0246C40.8615 22.8103 40.8615 21.6123 40.8615 20.398C40.8615 19.2657 41.6328 18.4615 42.7159 18.4615C43.7826 18.4615 44.5538 19.2657 44.5538 20.398C44.5538 22.0554 44.5703 23.7128 44.5374 25.3703C44.5374 25.7477 44.6359 25.8462 45.0133 25.8462C46.6708 25.8298 48.3282 25.8298 49.9856 25.8298C51.1179 25.8298 51.922 26.601 51.922 27.6677C51.922 28.7344 51.1179 29.5221 49.9856 29.5221C47.5897 29.5221 45.1938 29.5221 42.7979 29.5221C41.6 29.5221 40.8451 28.7672 40.8451 27.5692C40.8615 26.4041 40.8615 25.2226 40.8615 24.0246Z" fill="#00AF7E"/>
  </g>
  <defs>
    <clipPath id="clip0_20_766">
      <rect width="63.0154" height="48" fill="white"/>
    </clipPath>
  </defs>
</svg>