<svg width="40" height="48" viewBox="0 0 40 48" fill="none" xmlns="http://www.w3.org/2000/svg">
  <g clip-path="url(#clip0_20_732)">
    <path d="M20.0979 0C24.075 2.33872 28.3147 3.95206 32.8671 4.76498C34.5429 5.06514 36.2313 5.22772 37.9447 5.21522C38.8577 5.20271 39.433 5.79052 39.433 6.716C39.433 12.4565 39.5205 18.197 39.3955 23.925C39.2829 29.6029 37.7321 34.8682 34.1427 39.408C31.1662 43.1725 27.3017 45.6863 22.8118 47.2621C22.224 47.4747 21.6237 47.6123 21.0234 47.8124C19.9478 48.1751 18.9098 47.975 17.8593 47.6498C11.9562 45.8364 7.11616 42.5972 3.78942 37.2944C1.97598 34.3929 0.912924 31.2038 0.38765 27.827C0.0749874 25.8385 -5.16515e-05 23.8499 0.0124549 21.8489C0.0249614 16.8588 0.0374679 11.8687 -5.16516e-05 6.89109C-0.0125582 5.82804 0.700313 5.1902 1.75086 5.20271C5.20266 5.22772 8.52939 4.52736 11.7936 3.4518C14.4075 2.58885 16.9088 1.45076 19.26 0.0125065C19.5351 0 19.8103 0 20.0979 0ZM2.83893 16.2585C2.83893 18.5347 2.82642 20.8233 2.83893 23.0995C2.85143 25.1506 3.05154 27.1892 3.52679 29.1777C5.36524 36.9442 10.2178 41.9594 17.6591 44.5982C18.8848 45.036 20.0604 45.1985 21.3611 44.7608C26.7764 42.9349 31.1036 39.7707 33.8676 34.6931C35.7936 31.1537 36.544 27.2892 36.594 23.3121C36.6565 18.3471 36.6065 13.3695 36.619 8.40438C36.619 8.11673 36.5315 8.04169 36.2563 8.02918C34.743 7.94164 33.2423 7.75404 31.754 7.46639C27.6143 6.65347 23.6998 5.21522 19.9979 3.20167C19.7853 3.08911 19.6227 3.0766 19.3976 3.18916C14.3574 5.92809 9.00464 7.65399 3.25164 8.01668C2.91397 8.04169 2.82642 8.12924 2.82642 8.47942C2.83893 11.0683 2.83893 13.6571 2.83893 16.2585Z" fill="#00AF7E"/>
    <path d="M9.86764 27.0516C9.86764 25.1506 9.86764 23.2371 9.86764 21.3361C9.86764 20.3606 10.4304 19.7978 11.4059 19.7978C11.456 19.7978 11.506 19.7978 11.5435 19.7978C11.9187 19.7728 12.419 19.9604 12.6191 19.7227C12.8067 19.4976 12.6816 19.0099 12.6816 18.6347C12.7066 17.4215 12.5941 16.2084 12.9568 15.0078C13.9198 11.7936 16.8963 9.73004 20.3356 9.95516C23.4747 10.1553 26.2012 12.7191 26.6764 15.9333C26.8515 17.0839 26.7389 18.247 26.7514 19.3976C26.7514 19.7227 26.814 19.8353 27.1516 19.8103C27.4893 19.7728 27.8395 19.7978 28.1772 19.8103C28.9526 19.8228 29.5529 20.3981 29.5529 21.1735C29.5654 25.0755 29.6029 28.9901 29.5404 32.8921C29.4904 35.631 26.914 38.0823 24.1876 38.0948C21.1985 38.1198 18.222 38.1198 15.2329 38.0948C12.4315 38.0573 9.90516 35.5185 9.88015 32.717C9.85514 30.8285 9.86764 28.9401 9.86764 27.0516ZM19.7103 22.6118C17.5216 22.6118 15.333 22.6243 13.1444 22.5992C12.7441 22.5992 12.6691 22.7118 12.6691 23.087C12.6816 26.1386 12.6816 29.1777 12.6816 32.2293C12.6816 34.0802 13.8697 35.2683 15.7332 35.2683C18.3846 35.2683 21.0485 35.2683 23.6998 35.2683C25.5508 35.2683 26.7389 34.0802 26.7389 32.2168C26.7389 29.1527 26.7389 26.0886 26.7514 23.0245C26.7514 22.6743 26.6639 22.5867 26.3137 22.5992C24.1251 22.6118 21.9114 22.6118 19.7103 22.6118ZM19.6978 19.7853C20.9984 19.7853 22.2866 19.7853 23.5873 19.7853C23.7374 19.7853 23.95 19.8728 23.9375 19.5727C23.9 18.4846 24.0125 17.384 23.8624 16.296C23.5873 14.3324 21.7989 12.7816 19.7603 12.7566C17.7342 12.7316 15.9083 14.2574 15.5831 16.2209C15.408 17.2965 15.5456 18.372 15.4956 19.4476C15.4831 19.7478 15.5831 19.8103 15.8583 19.7978C17.1339 19.7853 18.4221 19.7853 19.6978 19.7853Z" fill="#00AF7E"/>
    <path d="M18.297 33.1172C17.9218 33.1297 17.5842 32.9797 17.309 32.7045C16.3835 31.779 15.4456 30.8535 14.5201 29.9156C13.9448 29.3278 13.9448 28.4523 14.4951 27.902C15.0453 27.3392 15.9208 27.3392 16.5086 27.902C17.0089 28.3773 17.5091 28.8525 17.9594 29.3653C18.247 29.7029 18.4096 29.6154 18.6722 29.3403C20.0605 27.927 21.4737 26.5263 22.8744 25.1256C23.3622 24.6378 23.975 24.5252 24.5503 24.8004C25.0881 25.063 25.4007 25.6133 25.3382 26.2136C25.3007 26.5638 25.1381 26.864 24.888 27.1141C23.037 28.9651 21.1985 30.8035 19.3476 32.6545C19.0724 32.9546 18.7223 33.1172 18.297 33.1172Z" fill="#00AF7E"/>
  </g>
  <defs>
    <clipPath id="clip0_20_732">
      <rect width="39.4455" height="48" fill="white"/>
    </clipPath>
  </defs>
</svg>