<svg width="48" height="48" viewBox="0 0 48 48" fill="none" xmlns="http://www.w3.org/2000/svg">
  <g clip-path="url(#clip0_20_737)">
    <path d="M26.0557 0C26.6056 0.199948 27.2054 0.174954 27.7678 0.262432C31.7667 0.887269 35.3408 2.44936 38.5025 4.94871C42.4764 8.09789 45.1008 12.1593 46.4504 17.0331C46.6878 17.8953 46.2879 18.6951 45.5256 18.9076C44.6884 19.145 43.9386 18.6826 43.6886 17.7204C42.6889 13.9964 40.7769 10.8222 37.9526 8.21036C34.9534 5.42359 31.4168 3.71153 27.3679 3.0742C18.5452 1.66207 10.0224 6.32335 6.22338 13.9964C6.09841 14.2463 5.98594 14.4837 5.83598 14.8211C6.24837 14.6587 6.5483 14.5212 6.86071 14.4087C7.59802 14.1338 8.39781 14.4712 8.69773 15.171C8.98516 15.8709 8.71023 16.6582 7.99792 16.9831C6.56079 17.6204 5.12367 18.2328 3.66155 18.8201C2.89924 19.12 2.17443 18.7451 1.82452 17.9078C1.24967 16.5457 0.674824 15.1835 0.099974 13.8339C0.0749805 13.7839 0.0374902 13.7339 0 13.6839C0 13.3965 0 13.1216 0 12.8342C0.624837 11.9469 1.1497 11.697 1.84952 11.9344C2.6993 12.2093 2.78677 13.0841 3.14918 13.7214C3.19917 13.6964 3.22416 13.6839 3.22416 13.6714C3.29914 13.5215 3.37412 13.3715 3.4491 13.2091C7.02317 6.02343 12.7717 1.69956 20.6821 0.274928C21.2195 0.174954 21.7818 0.212445 22.3067 0C23.5564 0 24.806 0 26.0557 0Z" fill="#00AF7E"/>
    <path d="M31.9917 36.2155C31.0294 36.2155 30.1921 35.9031 29.4173 35.3533C29.0424 35.0783 28.2676 35.3908 28.1927 35.8531C27.8427 37.9276 26.3431 39.3147 24.2312 39.5147C22.4941 39.6896 20.6946 38.5024 20.0323 36.7654C19.9573 36.553 19.8698 36.3155 19.8573 36.0906C19.8198 35.6532 19.6074 35.4407 19.195 35.2908C18.9076 35.1908 18.7451 35.2033 18.4952 35.3908C16.8206 36.6279 14.4962 36.4405 13.0216 34.9784C11.547 33.5162 11.372 31.1544 12.6217 29.4673C12.9341 29.0424 12.6342 28.2926 12.0968 28.1926C9.99739 27.8052 8.56027 26.1931 8.47279 24.0937C8.38531 22.2317 9.68498 20.4821 11.547 19.9323C11.622 19.9073 11.697 19.8698 11.7719 19.8698C12.3093 19.8698 12.6092 19.6199 12.7467 19.1075C12.7967 18.895 12.8092 18.7701 12.6717 18.5701C10.7847 16.0333 12.0844 12.5467 15.1835 11.8719C16.4207 11.6094 17.5704 11.8719 18.5827 12.6342C18.9576 12.9091 19.7324 12.5967 19.8073 12.1343C20.1572 10.0349 21.7443 8.59773 23.8563 8.46027C25.7308 8.3478 27.5428 9.67245 28.0802 11.572C28.1052 11.6594 28.1427 11.7594 28.1302 11.8469C28.0927 12.5092 28.6175 12.5967 29.0674 12.7841C29.2549 12.8716 29.3174 12.7092 29.4173 12.6342C31.9667 10.7597 35.4533 12.0593 36.1156 15.146C36.378 16.3832 36.1031 17.5204 35.3533 18.5451C35.0784 18.92 35.3908 19.6948 35.8532 19.7698C37.9526 20.1197 39.3772 21.6943 39.5272 23.8188C39.6522 25.6683 38.34 27.4678 36.453 28.0177C36.353 28.0427 36.2406 28.0927 36.1406 28.0927C35.4658 28.0427 35.4033 28.5925 35.2033 29.0299C35.1159 29.2174 35.2783 29.2798 35.3533 29.3798C37.2278 31.9292 35.9281 35.4033 32.8414 36.0781C32.554 36.1656 32.2666 36.178 31.9917 36.2155ZM15.9333 14.6212C15.446 14.6587 15.0086 14.8961 14.7587 15.4085C14.5087 15.9333 14.5712 16.4457 14.9336 16.8956C15.1336 17.1455 15.396 17.3579 15.6084 17.6079C16.0083 18.0703 16.1333 18.6076 15.8459 19.17C15.4335 19.9698 15.0836 20.8071 14.8086 21.6568C14.6087 22.2817 14.1213 22.5941 13.459 22.5941C13.2091 22.5941 12.9591 22.5816 12.7092 22.5941C11.9219 22.6316 11.3345 23.2064 11.322 23.9562C11.3096 24.7435 11.8594 25.3434 12.6717 25.4059C12.9091 25.4184 13.1341 25.4059 13.3715 25.4059C14.1588 25.4059 14.6462 25.7433 14.8711 26.4806C15.0961 27.2554 15.4085 27.9927 15.7959 28.7175C16.1458 29.3673 16.0583 29.9297 15.5459 30.467C15.3835 30.642 15.2085 30.792 15.0461 30.9669C14.4837 31.5668 14.4712 32.3915 14.9961 32.9414C15.5459 33.5037 16.3832 33.5162 17.0081 32.9414C17.208 32.7664 17.383 32.554 17.5704 32.379C18.0328 31.9791 18.5702 31.8292 19.12 32.1166C19.9323 32.5415 20.7821 32.8789 21.6569 33.1663C22.2567 33.3663 22.5691 33.8537 22.5816 34.491C22.5816 34.7409 22.5691 34.9909 22.5816 35.2408C22.6191 36.0531 23.194 36.6404 23.9688 36.6529C24.7685 36.6654 25.3559 36.0656 25.3934 35.2283C25.4059 34.9909 25.3934 34.7659 25.3934 34.5285C25.4059 33.8162 25.7308 33.3413 26.4056 33.1288C27.2304 32.8789 28.0052 32.554 28.7675 32.1416C29.3549 31.8292 29.9172 31.9292 30.4046 32.379C30.6295 32.579 30.817 32.8039 31.0544 32.9914C31.6418 33.4912 32.4291 33.4663 32.9539 32.9539C33.4913 32.429 33.5038 31.6042 32.9914 31.0169C32.7915 30.792 32.5665 30.6045 32.3666 30.3796C31.9667 29.9172 31.8417 29.3798 32.1291 28.8175C32.5415 28.0177 32.8914 27.1929 33.1664 26.3306C33.3663 25.7058 33.8537 25.3934 34.516 25.3934C34.7784 25.3934 35.0534 25.4059 35.3158 25.3934C36.1031 25.3434 36.653 24.7435 36.653 23.9937C36.653 23.2314 36.0906 22.6441 35.3033 22.5941C35.0534 22.5816 34.8034 22.5941 34.5535 22.5941C33.8162 22.5816 33.3288 22.2567 33.1164 21.5569C32.8664 20.7571 32.554 19.9823 32.1541 19.245C31.8292 18.6451 31.9292 18.0703 32.3916 17.5704C32.6165 17.333 32.8664 17.108 33.0664 16.8581C33.5038 16.2957 33.4413 15.5084 32.9414 15.0336C32.4291 14.5462 31.6668 14.4962 31.1044 14.9461C30.8545 15.146 30.6295 15.4085 30.3921 15.6209C29.9297 16.0333 29.4048 16.1708 28.8425 15.8833C28.0302 15.4584 27.1804 15.1085 26.3056 14.8336C25.7058 14.6462 25.3934 14.1463 25.3809 13.509C25.3809 13.2465 25.3934 12.9716 25.3809 12.7092C25.3309 11.8969 24.7311 11.3345 23.9563 11.347C23.2065 11.3595 22.6191 11.9219 22.5816 12.7217C22.5691 12.9591 22.5816 13.184 22.5816 13.4215C22.5816 14.1713 22.2692 14.6462 21.5694 14.8711C20.7571 15.1335 19.9698 15.4584 19.2075 15.8583C18.6077 16.1833 18.0453 16.0708 17.5329 15.5959C17.333 15.421 17.158 15.221 16.9581 15.0336C16.6956 14.7586 16.3707 14.6212 15.9333 14.6212Z" fill="#00AF7E"/>
    <path d="M44.8383 34.0787C43.976 36.0656 42.8888 37.8902 41.5142 39.5397C38.0526 43.7136 33.6787 46.4504 28.3551 47.5002C21.1695 48.9248 14.6837 47.2752 9.01015 42.6389C5.22363 39.5522 2.77427 35.5658 1.4996 30.8545C1.27466 30.0297 1.71205 29.2424 2.47435 29.055C3.26164 28.855 3.98645 29.2674 4.22389 30.1172C5.06118 33.1664 6.47331 35.9157 8.57276 38.2901C11.8094 41.9266 15.8209 44.176 20.6321 44.9133C29.5423 46.2755 38.0776 41.7267 41.9391 33.5913C42.039 33.3913 42.189 33.1914 42.1515 32.879C41.8516 33.0039 41.5767 33.1164 41.3017 33.2414C40.4395 33.5913 39.6147 33.3163 39.2898 32.554C38.9648 31.7917 39.3148 31.0045 40.1895 30.642C41.4892 30.0797 42.7888 29.5298 44.0885 28.9925C45.0258 28.6051 45.7756 28.905 46.1755 29.8423C46.7378 31.1544 47.2877 32.4791 47.8375 33.7912C48.1749 34.616 47.875 35.4158 47.1002 35.7407C46.3504 36.0531 45.6131 35.7032 45.2257 34.9034C45.1132 34.6285 45.0633 34.3286 44.8383 34.0787Z" fill="#00AF7E"/>
    <path d="M28.2052 23.9938C28.2052 26.3306 26.3306 28.2177 23.9938 28.2177C21.6569 28.2177 19.7699 26.3431 19.7699 24.0062C19.7699 21.6694 21.6444 19.7823 23.9938 19.7823C26.3306 19.7823 28.2052 21.6569 28.2052 23.9938ZM25.3934 23.9813C25.3809 23.2314 24.7061 22.5816 23.9688 22.5941C23.219 22.6066 22.5691 23.2814 22.5816 24.0187C22.5941 24.7561 23.2689 25.4184 24.0062 25.4059C24.7561 25.3809 25.4059 24.7186 25.3934 23.9813Z" fill="#00AF7E"/>
  </g>
  <defs>
    <clipPath id="clip0_20_737">
      <rect width="47.9875" height="48" fill="white"/>
    </clipPath>
  </defs>
</svg>