<svg width="20" height="18" viewBox="0 0 20 18" fill="currentColor" xmlns="http://www.w3.org/2000/svg">
  <path d="M20 2.79875C19.2563 3.125 18.4637 3.34125 17.6375 3.44625C18.4875 2.93875 19.1363 2.14125 19.4412 1.18C18.6488 1.6525 17.7738 1.98625 16.8412 2.1725C16.0887 1.37125 15.0162 0.875 13.8462 0.875C11.5763 0.875 9.7487 2.7175 9.7487 4.97625C9.7487 5.30125 9.7762 5.61375 9.8438 5.91125C6.435 5.745 3.4188 4.11125 1.3925 1.6225C1.0387 2.23625 0.831299 2.93875 0.831299 3.695C0.831299 5.115 1.5625 6.37375 2.6525 7.1025C1.9937 7.09 1.3475 6.8988 0.800003 6.5975V6.6425C0.800003 8.635 2.2212 10.29 4.085 10.6712C3.7512 10.7625 3.3875 10.8062 3.01 10.8062C2.7475 10.8062 2.4825 10.7913 2.2337 10.7362C2.765 12.36 4.2725 13.5538 6.065 13.5925C4.67 14.6838 2.8988 15.3412 0.9813 15.3412C0.644997 15.3412 0.322502 15.3263 0 15.285C1.8162 16.4563 3.9688 17.125 6.29 17.125C13.835 17.125 17.96 10.875 17.96 5.4575C17.96 5.27625 17.9538 5.10125 17.945 4.9275C18.7588 4.35 19.4425 3.62875 20 2.79875Z" fill="currentColor"/>
</svg>