<svg width="48" height="48" viewBox="0 0 48 48" fill="none" xmlns="http://www.w3.org/2000/svg">
  <g clip-path="url(#clip0_20_748)">
    <path d="M4.225 0C17.35 0 30.475 0 43.6 0C43.625 0.025 43.65 0.075 43.6875 0.0875C46.1875 0.4875 48 2.5875 48 5.1375C48 17.7125 48 30.2875 48 42.8625C48 45.725 45.7125 48 42.8625 48C30.2875 48 17.7125 48 5.1375 48C2.8 48 0.8 46.4375 0.175 44.1875C0.1375 44.05 0.175 43.8625 0 43.7875C0 30.6 0 17.4125 0 4.225C0.175 4.1625 0.125 3.9875 0.1625 3.875C0.6625 2.0625 1.8125 0.8875 3.55 0.25C3.775 0.1625 4.0375 0.2 4.225 0ZM24 14.0625C17.1 14.0625 10.1875 14.0625 3.2875 14.05C2.9 14.05 2.8125 14.1375 2.8125 14.525C2.825 23.8625 2.825 33.2125 2.825 42.55C2.825 44.225 3.7875 45.175 5.475 45.175C17.8375 45.175 30.1875 45.175 42.55 45.175C44.2375 45.175 45.2 44.225 45.2 42.55C45.2 33.2125 45.2 23.8625 45.2125 14.525C45.2125 14.1375 45.1125 14.05 44.725 14.05C37.8125 14.0625 30.9 14.0625 24 14.0625ZM35.3 11.25C38.475 11.25 41.6375 11.25 44.8125 11.25C45.1 11.25 45.2125 11.2 45.2 10.875C45.1875 9 45.2 7.125 45.1875 5.25C45.175 3.8125 44.175 2.8 42.7375 2.8C37.0875 2.8 31.4375 2.8 25.775 2.7875C25.4625 2.7875 25.4 2.875 25.4 3.175C25.4125 5.725 25.4125 8.2625 25.4 10.8125C25.4 11.1625 25.4875 11.2375 25.8375 11.2375C28.9875 11.25 32.1375 11.25 35.3 11.25ZM12.65 11.25C15.825 11.25 18.9875 11.25 22.1625 11.2625C22.5 11.2625 22.6 11.2 22.6 10.8375C22.575 8.3125 22.5875 5.775 22.6 3.25C22.6 2.925 22.55 2.8125 22.175 2.8125C16.575 2.825 10.9625 2.825 5.3625 2.825C3.8 2.825 2.8125 3.8125 2.8125 5.3625C2.8125 7.1875 2.825 9.0125 2.8 10.8375C2.8 11.2 2.9 11.2625 3.2375 11.2625C6.375 11.25 9.5125 11.25 12.65 11.25Z" fill="#00AF7E"/>
    <path d="M24.05 16.875C29.6375 16.875 35.2375 16.875 40.825 16.875C41.5875 16.875 42.175 17.375 42.275 18.0625C42.375 18.775 41.95 19.4375 41.25 19.6375C41.1 19.675 40.9375 19.6875 40.7875 19.6875C29.6 19.6875 18.4125 19.6875 7.22498 19.6875C6.32498 19.6875 5.71248 19.1 5.72498 18.2625C5.73748 17.45 6.34998 16.875 7.22498 16.875C12.825 16.875 18.4375 16.875 24.05 16.875Z" fill="#00AF7E"/>
    <path d="M16.025 27.7C16.025 28.9 16.025 30.1 16.025 31.3125C16.025 32.225 15.45 32.8125 14.55 32.8125C12.1 32.8125 9.65002 32.8125 7.18752 32.8125C6.30002 32.8125 5.71252 32.2375 5.71252 31.3625C5.71252 28.9 5.71252 26.425 5.71252 23.9625C5.71252 23.1 6.30002 22.5125 7.13752 22.5125C9.62502 22.5125 12.1 22.5125 14.5875 22.5125C15.4375 22.5125 16.0125 23.1125 16.0125 23.9625C16.0375 25.2 16.025 26.45 16.025 27.7ZM13.2125 27.7C13.2125 27.0125 13.2125 26.325 13.2125 25.6375C13.2125 25.425 13.2125 25.3 12.925 25.3C11.55 25.3125 10.175 25.3125 8.80002 25.3C8.57502 25.3 8.51252 25.3625 8.51252 25.5875C8.52502 26.9625 8.52502 28.3375 8.51252 29.7125C8.51252 29.9375 8.57502 30 8.80002 30C10.175 29.9875 11.55 29.9875 12.925 30C13.15 30 13.2125 29.9375 13.2125 29.7125C13.2125 29.05 13.2125 28.375 13.2125 27.7Z" fill="#00AF7E"/>
    <path d="M29.15 27.6625C29.15 28.875 29.15 30.1 29.15 31.3125C29.15 32.225 28.575 32.8125 27.675 32.8125C25.225 32.8125 22.775 32.8125 20.3125 32.8125C19.425 32.8125 18.8375 32.2375 18.8375 31.3625C18.8375 28.9 18.8375 26.425 18.8375 23.9625C18.8375 23.1125 19.425 22.5125 20.2625 22.5125C22.75 22.5125 25.225 22.5125 27.7125 22.5125C28.5625 22.5125 29.1375 23.1125 29.1375 23.9625C29.1625 25.1875 29.15 26.425 29.15 27.6625ZM26.3375 27.6625C26.3375 26.9875 26.325 26.325 26.3375 25.65C26.3375 25.4 26.3 25.3 26.0125 25.3C24.675 25.3125 23.325 25.3125 21.9875 25.3C21.7375 25.3 21.6375 25.3375 21.6375 25.625C21.65 26.9625 21.65 28.3125 21.6375 29.65C21.6375 29.9 21.675 30 21.9625 30C23.3 29.9875 24.65 29.9875 25.9875 30C26.3 30 26.3375 29.8875 26.3375 29.625C26.3375 28.975 26.3375 28.325 26.3375 27.6625Z" fill="#00AF7E"/>
    <path d="M42.275 27.7C42.275 28.9 42.275 30.1 42.275 31.3125C42.275 32.225 41.7 32.8125 40.8 32.8125C38.35 32.8125 35.9 32.8125 33.4375 32.8125C32.55 32.8125 31.9625 32.2375 31.9625 31.3625C31.9625 28.9 31.9625 26.425 31.9625 23.9625C31.9625 23.1 32.55 22.5125 33.3875 22.5125C35.875 22.5125 38.35 22.5125 40.8375 22.5125C41.6875 22.5125 42.2625 23.1125 42.2625 23.9625C42.2875 25.2 42.275 26.45 42.275 27.7ZM37.15 25.3125C36.4625 25.3125 35.775 25.325 35.0875 25.3125C34.85 25.3125 34.7625 25.3625 34.7625 25.6125C34.775 26.975 34.775 28.325 34.7625 29.6875C34.7625 29.925 34.8125 30.0125 35.0625 30.0125C36.425 30 37.775 30 39.1375 30.0125C39.375 30.0125 39.4625 29.9625 39.4625 29.7125C39.45 28.35 39.45 27 39.4625 25.6375C39.4625 25.35 39.35 25.3125 39.1125 25.325C38.4625 25.325 37.8125 25.3125 37.15 25.3125Z" fill="#00AF7E"/>
    <path d="M10.875 35.625C12.0875 35.625 13.3125 35.625 14.525 35.625C15.425 35.625 16.0375 36.2125 16.025 37.05C16.0125 37.8625 15.4 38.4375 14.525 38.4375C12.0875 38.4375 9.65003 38.4375 7.21253 38.4375C6.31253 38.4375 5.70003 37.85 5.71253 37.0125C5.72503 36.2 6.33753 35.6375 7.21253 35.625C8.43753 35.625 9.65003 35.625 10.875 35.625Z" fill="#00AF7E"/>
    <path d="M23.95 38.4375C22.75 38.4375 21.55 38.4375 20.3375 38.4375C19.4375 38.4375 18.825 37.85 18.8375 37.0125C18.85 36.2 19.4625 35.6375 20.3375 35.625C22.775 35.625 25.2125 35.625 27.65 35.625C28.55 35.625 29.1625 36.2125 29.15 37.05C29.1375 37.8625 28.525 38.425 27.65 38.4375C26.425 38.4375 25.1875 38.4375 23.95 38.4375Z" fill="#00AF7E"/>
    <path d="M37.1375 35.625C38.35 35.625 39.575 35.625 40.7875 35.625C41.6625 35.625 42.275 36.2 42.275 37.025C42.275 37.85 41.675 38.4375 40.8125 38.4375C38.3625 38.4375 35.9125 38.4375 33.45 38.4375C32.575 38.4375 31.9625 37.8625 31.9625 37.0375C31.9625 36.225 32.575 35.625 33.425 35.625C34.675 35.625 35.9 35.625 37.1375 35.625Z" fill="#00AF7E"/>
    <path d="M7.13752 8.4375C6.33752 8.4375 5.71252 7.825 5.71252 7.025C5.71252 6.25 6.32502 5.6375 7.10002 5.625C7.90002 5.625 8.52502 6.2375 8.52502 7.0375C8.52502 7.8125 7.91252 8.4375 7.13752 8.4375Z" fill="#00AF7E"/>
    <path d="M12.775 5.62501C13.55 5.63751 14.1625 6.25001 14.1625 7.02501C14.1625 7.82501 13.5375 8.43751 12.7375 8.43751C11.9375 8.42501 11.3375 7.78751 11.35 6.98751C11.3625 6.21251 11.9875 5.61251 12.775 5.62501Z" fill="#00AF7E"/>
    <path d="M18.375 5.625C19.175 5.625 19.8 6.25 19.7875 7.05C19.775 7.825 19.1625 8.4375 18.3875 8.4375C17.5875 8.4375 16.975 7.8125 16.975 7.0125C16.975 6.2375 17.5875 5.625 18.375 5.625Z" fill="#00AF7E"/>
  </g>
  <defs>
    <clipPath id="clip0_20_748">
      <rect width="48" height="48" fill="white"/>
    </clipPath>
  </defs>
</svg>